<svg version="1.1" xmlns="http://www.w3.org/2000/svg" xmlns:xlink="http://www.w3.org/1999/xlink" width="544" height="448" viewBox="0 0 544 448">
<g id="icomoon-ignore">
</g>
<path id="icon_id" fill="#0c0" d="M432 112l-96 176h192zM112 112l-96 176h192zM317.25 64c-4.75 13.5-15.75 24.5-29.25 29.25v322.75h152c4.5 0 8 3.5 8 8v16c0 4.5-3.5 8-8 8h-336c-4.5 0-8-3.5-8-8v-16c0-4.5 3.5-8 8-8h152v-322.75c-13.5-4.75-24.5-15.75-29.25-29.25h-122.75c-4.5 0-8-3.5-8-8v-16c0-4.5 3.5-8 8-8h122.75c6.75-18.75 24.25-32 45.25-32s38.5 13.25 45.25 32h122.75c4.5 0 8 3.5 8 8v16c0 4.5-3.5 8-8 8h-122.75zM272 68c11 0 20-9 20-20s-9-20-20-20-20 9-20 20 9 20 20 20zM544 288c0 51.5-71.25 72-112 72s-112-20.5-112-72v0c0-9.75 87.25-164.25 98-183.75 2.75-5 8.25-8.25 14-8.25s11.25 3.25 14 8.25c10.75 19.5 98 174 98 183.75v0zM224 288c0 51.5-71.25 72-112 72s-112-20.5-112-72v0c0-9.75 87.25-164.25 98-183.75 2.75-5 8.25-8.25 14-8.25s11.25 3.25 14 8.25c10.75 19.5 98 174 98 183.75z"></path>
</svg>