<?xml version="1.0"?>
<svg width="85.7" height="369.2" xmlns="http://www.w3.org/2000/svg">
 <defs>
  <linearGradient y2="0.982857" y1="0.017143" id="gradient0" spreadMethod="pad" x2="0.629286" x1="0.370714">
   <stop stop-color="#ffffff" offset="0"/>
   <stop offset="0.721569"/>
  </linearGradient>
  <linearGradient y2="-0.253571" y1="1.253571" id="gradient1" spreadMethod="pad" x2="0.297857" x1="0.702143">
   <stop stop-color="#ffffff" offset="0"/>
   <stop offset="1"/>
  </linearGradient>
  <radialGradient id="gradient2" gradientTransform="matrix(0.0275726318359375 0 0 0.0275726318359375 75.45 211.9)" spreadMethod="pad" cy="0" cx="0" r="819.2" gradientUnits="userSpaceOnUse">
   <stop stop-color="#ffffff" offset="0"/>
   <stop offset="1"/>
  </radialGradient>
 </defs>
 <g>
  <title>background</title>
  <rect fill="none" id="canvas_background" height="371.2" width="87.7" y="-1" x="-1"/>
 </g>
 <g>
  <title>Layer 1</title>
  <g id="svg_1">
   <path id="svg_2" d="m51.599998,14.299999q0,3.600002 -2.599998,6.150002q-2.550003,2.599998 -6.150002,2.599998q-3.599998,0 -6.199997,-2.599998q-2.550003,-2.549999 -2.550003,-6.150002q0,-3.599998 2.550003,-6.199999q2.599998,-2.550001 6.199997,-2.550001q3.599998,0 6.150002,2.550001q2.599998,2.6 2.599998,6.199999" fill="url(#gradient0)"/>
   <path id="svg_3" d="m51.599998,14.299999q0,3.600002 -2.599998,6.150002q-2.550003,2.599998 -6.150002,2.599998q-3.599998,0 -6.199997,-2.599998q-2.550003,-2.549999 -2.550003,-6.150002q0,-3.599998 2.550003,-6.199999q2.599998,-2.550001 6.199997,-2.550001q3.599998,0 6.150002,2.550001q2.599998,2.6 2.599998,6.199999" stroke-linejoin="round" stroke-linecap="round" stroke-width="2" stroke="url(#gradient1)" fill="none"/>
   <path id="svg_4" d="m81.199997,194.399994q0,15.900009 -11.25,27.100006q-11.199997,11.25 -27.099998,11.25q-15.9,0 -27.15,-11.25q-11.199997,-11.199997 -11.199997,-27.100006q0,-15.899994 11.199997,-27.149994q11.25,-11.199997 27.15,-11.199997q15.900002,0 27.099998,11.199997q11.25,11.25 11.25,27.149994m-27.25,10.200012q4.650002,-4.650009 4.650002,-11.25q0,-6.600006 -4.650002,-11.25q-4.650002,-4.650009 -11.25,-4.650009q-6.599998,0 -11.249998,4.650009q-4.649998,4.649994 -4.649998,11.25q0,6.599991 4.649998,11.25q4.65,4.649994 11.249998,4.649994q6.599998,0 11.25,-4.649994" fill-opacity="0.2" fill="#3399ff"/>
   <path id="svg_5" d="m53.949997,204.600006q-4.650002,4.649994 -11.25,4.649994q-6.599998,0 -11.249998,-4.649994q-4.649998,-4.650009 -4.649998,-11.25q0,-6.600006 4.649998,-11.25q4.65,-4.650009 11.249998,-4.650009q6.599998,0 11.25,4.650009q4.650002,4.649994 4.650002,11.25q0,6.599991 -4.650002,11.25" fill="url(#gradient2)"/>
   <path id="svg_6" d="m53.949997,204.600006q-4.650002,4.649994 -11.25,4.649994q-6.599998,0 -11.249998,-4.649994q-4.649998,-4.650009 -4.649998,-11.25q0,-6.600006 4.649998,-11.25q4.65,-4.650009 11.249998,-4.650009q6.599998,0 11.25,4.650009q4.650002,4.649994 4.650002,11.25q0,6.599991 -4.650002,11.25" stroke-linejoin="round" stroke-linecap="round" stroke-width="0.05" stroke="#666666" fill="none"/>
  </g>
 </g>
</svg>